<?xml version="1.0" encoding="UTF-8" standalone="no"?>
<!DOCTYPE svg PUBLIC "-//W3C//DTD SVG 1.1//EN"
 "http://www.w3.org/Graphics/SVG/1.1/DTD/svg11.dtd">
<!-- Generated by graphviz version 2.47.0 (20210316.0004)
 -->
<!-- Title: workflow Pages: 1 -->
<svg width="793pt" height="240pt"
 viewBox="0.00 0.00 793.20 239.89" xmlns="http://www.w3.org/2000/svg" xmlns:xlink="http://www.w3.org/1999/xlink">
<g id="graph0" class="graph" transform="scale(1 1) rotate(0) translate(4 235.89)">
<title>workflow</title>
<polygon fill="white" stroke="transparent" points="-4,4 -4,-235.89 789.2,-235.89 789.2,4 -4,4"/>
<!-- place_0e7766b460fd2a39a2fd81d4a3a636b033b52be4 -->
<g id="node1" class="node">
<title>place_0e7766b460fd2a39a2fd81d4a3a636b033b52be4</title>
<ellipse fill="lightblue" stroke="#333333" cx="36" cy="-120.77" rx="36" ry="36"/>
<text text-anchor="middle" x="36" y="-118.57" font-family="Arial" font-size="9.00">draft</text>
</g>
<!-- transition_b6589fc6ab0dc82cf12099d1c2d40ab994e8410c -->
<g id="node7" class="node">
<title>transition_b6589fc6ab0dc82cf12099d1c2d40ab994e8410c</title>
<polygon fill="none" stroke="#333333" points="188,-160.77 108,-160.77 108,-80.77 188,-80.77 188,-160.77"/>
<text text-anchor="middle" x="148" y="-118.57" font-family="Arial" font-size="9.00">review_request</text>
</g>
<!-- place_0e7766b460fd2a39a2fd81d4a3a636b033b52be4&#45;&gt;transition_b6589fc6ab0dc82cf12099d1c2d40ab994e8410c -->
<g id="edge1" class="edge">
<title>place_0e7766b460fd2a39a2fd81d4a3a636b033b52be4&#45;&gt;transition_b6589fc6ab0dc82cf12099d1c2d40ab994e8410c</title>
<path fill="none" stroke="#333333" d="M72.11,-120.77C81.74,-120.77 92.32,-120.77 102.42,-120.77"/>
<polygon fill="#333333" stroke="#333333" points="102.64,-122.52 107.64,-120.77 102.64,-119.02 102.64,-122.52"/>
</g>
<!-- place_a1af7f76858248d17249d304634461f488524bd7 -->
<g id="node2" class="node">
<title>place_a1af7f76858248d17249d304634461f488524bd7</title>
<ellipse fill="none" stroke="#333333" cx="265.83" cy="-176.77" rx="41.66" ry="41.66"/>
<text text-anchor="middle" x="265.83" y="-174.57" font-family="Arial" font-size="9.00">wait_for_review</text>
</g>
<!-- transition_356a192b7913b04c54574d18c28d46e6395428ab -->
<g id="node8" class="node">
<title>transition_356a192b7913b04c54574d18c28d46e6395428ab</title>
<polygon fill="none" stroke="#333333" points="418.66,-214.77 346.66,-214.77 346.66,-142.77 418.66,-142.77 418.66,-214.77"/>
<text text-anchor="middle" x="382.66" y="-176.57" font-family="Arial" font-size="9.00">editor_review</text>
</g>
<!-- place_a1af7f76858248d17249d304634461f488524bd7&#45;&gt;transition_356a192b7913b04c54574d18c28d46e6395428ab -->
<g id="edge4" class="edge">
<title>place_a1af7f76858248d17249d304634461f488524bd7&#45;&gt;transition_356a192b7913b04c54574d18c28d46e6395428ab</title>
<path fill="none" stroke="#333333" d="M307.96,-177.49C318.8,-177.68 330.48,-177.88 341.28,-178.07"/>
<polygon fill="#333333" stroke="#333333" points="341.47,-179.82 346.5,-178.16 341.54,-176.32 341.47,-179.82"/>
</g>
<!-- place_84f85aec968ff074089d70b613772b1dfc62e941 -->
<g id="node3" class="node">
<title>place_84f85aec968ff074089d70b613772b1dfc62e941</title>
<ellipse fill="none" stroke="#333333" cx="265.83" cy="-70.77" rx="40.06" ry="40.06"/>
<text text-anchor="middle" x="265.83" y="-68.57" font-family="Arial" font-size="9.00">wait_for_check</text>
</g>
<!-- transition_da4b9237bacccdf19c0760cab7aec4a8359010b0 -->
<g id="node9" class="node">
<title>transition_da4b9237bacccdf19c0760cab7aec4a8359010b0</title>
<polygon fill="none" stroke="#333333" points="421.66,-97.77 343.66,-97.77 343.66,-19.77 421.66,-19.77 421.66,-97.77"/>
<text text-anchor="middle" x="382.66" y="-56.57" font-family="Arial" font-size="9.00">checker_check</text>
</g>
<!-- place_84f85aec968ff074089d70b613772b1dfc62e941&#45;&gt;transition_da4b9237bacccdf19c0760cab7aec4a8359010b0 -->
<g id="edge6" class="edge">
<title>place_84f85aec968ff074089d70b613772b1dfc62e941&#45;&gt;transition_da4b9237bacccdf19c0760cab7aec4a8359010b0</title>
<path fill="none" stroke="#333333" d="M306.02,-66.67C316.41,-65.59 327.68,-64.41 338.28,-63.3"/>
<polygon fill="#333333" stroke="#333333" points="338.62,-65.03 343.41,-62.77 338.26,-61.55 338.62,-65.03"/>
</g>
<!-- place_9698d81d772731dc39512dec3c21389577008015 -->
<g id="node4" class="node">
<title>place_9698d81d772731dc39512dec3c21389577008015</title>
<ellipse fill="none" stroke="#333333" cx="513.43" cy="-180.77" rx="51.25" ry="51.25"/>
<text text-anchor="middle" x="513.43" y="-178.57" font-family="Arial" font-size="9.00">approved_by_editor</text>
</g>
<!-- transition_77de68daecd823babbb58edb1c8e14d7106e83bb -->
<g id="node10" class="node">
<title>transition_77de68daecd823babbb58edb1c8e14d7106e83bb</title>
<polygon fill="none" stroke="#333333" points="677.2,-153.77 605.2,-153.77 605.2,-81.77 677.2,-81.77 677.2,-153.77"/>
<text text-anchor="middle" x="641.2" y="-115.57" font-family="Arial" font-size="9.00">publish</text>
</g>
<!-- place_9698d81d772731dc39512dec3c21389577008015&#45;&gt;transition_77de68daecd823babbb58edb1c8e14d7106e83bb -->
<g id="edge8" class="edge">
<title>place_9698d81d772731dc39512dec3c21389577008015&#45;&gt;transition_77de68daecd823babbb58edb1c8e14d7106e83bb</title>
<path fill="none" stroke="#333333" d="M559.48,-158.2C572.79,-151.54 587.26,-144.29 600.22,-137.8"/>
<polygon fill="#333333" stroke="#333333" points="601.24,-139.24 604.93,-135.44 599.67,-136.11 601.24,-139.24"/>
</g>
<!-- place_06a78ad86bd460cba058c05702001d138b4f7bd6 -->
<g id="node5" class="node">
<title>place_06a78ad86bd460cba058c05702001d138b4f7bd6</title>
<ellipse fill="none" stroke="#333333" cx="513.43" cy="-55.77" rx="55.54" ry="55.54"/>
<text text-anchor="middle" x="513.43" y="-53.57" font-family="Arial" font-size="9.00">approved_by_checker</text>
</g>
<!-- place_06a78ad86bd460cba058c05702001d138b4f7bd6&#45;&gt;transition_77de68daecd823babbb58edb1c8e14d7106e83bb -->
<g id="edge9" class="edge">
<title>place_06a78ad86bd460cba058c05702001d138b4f7bd6&#45;&gt;transition_77de68daecd823babbb58edb1c8e14d7106e83bb</title>
<path fill="none" stroke="#333333" d="M563.77,-80.1C575.93,-86.09 588.78,-92.43 600.42,-98.16"/>
<polygon fill="#333333" stroke="#333333" points="599.72,-99.77 604.98,-100.41 601.27,-96.63 599.72,-99.77"/>
</g>
<!-- place_c2807535f28e44fe6c7375dcf90518115529a8fa -->
<g id="node6" class="node">
<title>place_c2807535f28e44fe6c7375dcf90518115529a8fa</title>
<ellipse fill="none" stroke="#333333" cx="749.2" cy="-117.77" rx="36" ry="36"/>
<text text-anchor="middle" x="749.2" y="-115.57" font-family="Arial" font-size="9.00">published</text>
</g>
<!-- transition_b6589fc6ab0dc82cf12099d1c2d40ab994e8410c&#45;&gt;place_a1af7f76858248d17249d304634461f488524bd7 -->
<g id="edge2" class="edge">
<title>transition_b6589fc6ab0dc82cf12099d1c2d40ab994e8410c&#45;&gt;place_a1af7f76858248d17249d304634461f488524bd7</title>
<path fill="none" stroke="#333333" d="M188.21,-139.73C199.35,-145.12 211.53,-151 222.83,-156.47"/>
<polygon fill="#333333" stroke="#333333" points="222.35,-158.18 227.61,-158.78 223.87,-155.03 222.35,-158.18"/>
</g>
<!-- transition_b6589fc6ab0dc82cf12099d1c2d40ab994e8410c&#45;&gt;place_84f85aec968ff074089d70b613772b1dfc62e941 -->
<g id="edge3" class="edge">
<title>transition_b6589fc6ab0dc82cf12099d1c2d40ab994e8410c&#45;&gt;place_84f85aec968ff074089d70b613772b1dfc62e941</title>
<path fill="none" stroke="#333333" d="M188.21,-103.84C199.58,-98.93 212.03,-93.56 223.53,-88.6"/>
<polygon fill="#333333" stroke="#333333" points="224.49,-90.09 228.39,-86.5 223.1,-86.88 224.49,-90.09"/>
</g>
<!-- transition_356a192b7913b04c54574d18c28d46e6395428ab&#45;&gt;place_9698d81d772731dc39512dec3c21389577008015 -->
<g id="edge5" class="edge">
<title>transition_356a192b7913b04c54574d18c28d46e6395428ab&#45;&gt;place_9698d81d772731dc39512dec3c21389577008015</title>
<path fill="none" stroke="#333333" d="M418.84,-179.32C430.55,-179.5 443.88,-179.71 456.74,-179.91"/>
<polygon fill="#333333" stroke="#333333" points="456.81,-181.66 461.83,-179.99 456.86,-178.16 456.81,-181.66"/>
</g>
<!-- transition_da4b9237bacccdf19c0760cab7aec4a8359010b0&#45;&gt;place_06a78ad86bd460cba058c05702001d138b4f7bd6 -->
<g id="edge7" class="edge">
<title>transition_da4b9237bacccdf19c0760cab7aec4a8359010b0&#45;&gt;place_06a78ad86bd460cba058c05702001d138b4f7bd6</title>
<path fill="none" stroke="#333333" d="M421.94,-57.88C431.5,-57.66 441.98,-57.41 452.31,-57.17"/>
<polygon fill="#333333" stroke="#333333" points="452.41,-58.92 457.37,-57.05 452.33,-55.42 452.41,-58.92"/>
</g>
<!-- transition_77de68daecd823babbb58edb1c8e14d7106e83bb&#45;&gt;place_c2807535f28e44fe6c7375dcf90518115529a8fa -->
<g id="edge10" class="edge">
<title>transition_77de68daecd823babbb58edb1c8e14d7106e83bb&#45;&gt;place_c2807535f28e44fe6c7375dcf90518115529a8fa</title>
<path fill="none" stroke="#333333" d="M677.2,-117.77C686.96,-117.77 697.64,-117.77 707.68,-117.77"/>
<polygon fill="#333333" stroke="#333333" points="707.87,-119.52 712.87,-117.77 707.87,-116.02 707.87,-119.52"/>
</g>
</g>
</svg>
