<?xml version="1.0" encoding="UTF-8" standalone="no"?>
<!DOCTYPE svg PUBLIC "-//W3C//DTD SVG 1.1//EN"
 "http://www.w3.org/Graphics/SVG/1.1/DTD/svg11.dtd">
<!-- Generated by graphviz version 2.47.0 (20210316.0004)
 -->
<!-- Title: workflow Pages: 1 -->
<svg width="549pt" height="218pt"
 viewBox="0.00 0.00 549.00 218.00" xmlns="http://www.w3.org/2000/svg" xmlns:xlink="http://www.w3.org/1999/xlink">
<g id="graph0" class="graph" transform="scale(1 1) rotate(0) translate(4 214)">
<title>workflow</title>
<polygon fill="white" stroke="transparent" points="-4,4 -4,-214 545,-214 545,4 -4,4"/>
<!-- place_c2a6b03f190dfb2b4aa91f8af8d477a9bc3401dc -->
<g id="node1" class="node">
<title>place_c2a6b03f190dfb2b4aa91f8af8d477a9bc3401dc</title>
<ellipse fill="lightblue" stroke="#333333" cx="36" cy="-84" rx="36" ry="36"/>
<text text-anchor="middle" x="36" y="-81.8" font-family="Arial" font-size="9.00">new</text>
</g>
<!-- place_28cfb479fbfa87b18bb75903413bd4cf0556f6b8 -->
<g id="node2" class="node">
<title>place_28cfb479fbfa87b18bb75903413bd4cf0556f6b8</title>
<ellipse fill="none" stroke="#333333" cx="191" cy="-84" rx="36" ry="36"/>
<text text-anchor="middle" x="191" y="-81.8" font-family="Arial" font-size="9.00">checking</text>
</g>
<!-- place_c2a6b03f190dfb2b4aa91f8af8d477a9bc3401dc&#45;&gt;place_28cfb479fbfa87b18bb75903413bd4cf0556f6b8 -->
<g id="edge1" class="edge">
<title>place_c2a6b03f190dfb2b4aa91f8af8d477a9bc3401dc&#45;&gt;place_28cfb479fbfa87b18bb75903413bd4cf0556f6b8</title>
<path fill="none" stroke="#333333" d="M72.1,-84C95.25,-84 125.63,-84 149.75,-84"/>
<polygon fill="#333333" stroke="#333333" points="149.8,-85.75 154.8,-84 149.8,-82.25 149.8,-85.75"/>
<text text-anchor="middle" x="113.5" y="-86.8" font-family="Arial" font-size="9.00">start_check</text>
</g>
<!-- place_1f087a5954f6249bb7245576c304a0520d4178c5 -->
<g id="node4" class="node">
<title>place_1f087a5954f6249bb7245576c304a0520d4178c5</title>
<ellipse fill="none" stroke="#333333" cx="368" cy="-174" rx="36" ry="36"/>
<text text-anchor="middle" x="368" y="-171.8" font-family="Arial" font-size="9.00">rejected</text>
</g>
<!-- place_28cfb479fbfa87b18bb75903413bd4cf0556f6b8&#45;&gt;place_1f087a5954f6249bb7245576c304a0520d4178c5 -->
<g id="edge2" class="edge">
<title>place_28cfb479fbfa87b18bb75903413bd4cf0556f6b8&#45;&gt;place_1f087a5954f6249bb7245576c304a0520d4178c5</title>
<path fill="none" stroke="#333333" d="M223.29,-100.09C253.55,-115.66 299.38,-139.22 331.11,-155.54"/>
<polygon fill="#333333" stroke="#333333" points="330.44,-157.17 335.69,-157.9 332.04,-154.05 330.44,-157.17"/>
<text text-anchor="middle" x="279.5" y="-146.8" font-family="Arial" font-size="9.00">check_rejected</text>
</g>
<!-- place_c9560d94ee19830374678a9c9f9a0833801c9f62 -->
<g id="node5" class="node">
<title>place_c9560d94ee19830374678a9c9f9a0833801c9f62</title>
<ellipse fill="none" stroke="#333333" cx="368" cy="-84" rx="36" ry="36"/>
<text text-anchor="middle" x="368" y="-81.8" font-family="Arial" font-size="9.00">approved</text>
</g>
<!-- place_28cfb479fbfa87b18bb75903413bd4cf0556f6b8&#45;&gt;place_c9560d94ee19830374678a9c9f9a0833801c9f62 -->
<g id="edge3" class="edge">
<title>place_28cfb479fbfa87b18bb75903413bd4cf0556f6b8&#45;&gt;place_c9560d94ee19830374678a9c9f9a0833801c9f62</title>
<path fill="none" stroke="#333333" d="M227.41,-84C256.21,-84 296.84,-84 326.84,-84"/>
<polygon fill="#333333" stroke="#333333" points="326.94,-85.75 331.94,-84 326.94,-82.25 326.94,-85.75"/>
<text text-anchor="middle" x="279.5" y="-86.8" font-family="Arial" font-size="9.00">check_approved</text>
</g>
<!-- place_9ead47a82a0d25985f22f10651d1f93b3abba317 -->
<g id="node3" class="node">
<title>place_9ead47a82a0d25985f22f10651d1f93b3abba317</title>
<ellipse fill="none" stroke="#333333" cx="505" cy="-36" rx="36" ry="36"/>
<text text-anchor="middle" x="505" y="-33.8" font-family="Arial" font-size="9.00">edit</text>
</g>
<!-- place_9ead47a82a0d25985f22f10651d1f93b3abba317&#45;&gt;place_28cfb479fbfa87b18bb75903413bd4cf0556f6b8 -->
<g id="edge5" class="edge">
<title>place_9ead47a82a0d25985f22f10651d1f93b3abba317&#45;&gt;place_28cfb479fbfa87b18bb75903413bd4cf0556f6b8</title>
<path fill="none" stroke="#333333" d="M468.86,-32.94C449.7,-31.42 425.57,-29.75 404,-29 372.02,-27.88 363.44,-23.05 332,-29 295.13,-35.98 255.55,-52.45 227.91,-65.56"/>
<polygon fill="#333333" stroke="#333333" points="226.99,-64.06 223.23,-67.8 228.5,-67.22 226.99,-64.06"/>
<text text-anchor="middle" x="368" y="-31.8" font-family="Arial" font-size="9.00">re_check</text>
</g>
<!-- place_1f087a5954f6249bb7245576c304a0520d4178c5&#45;&gt;place_9ead47a82a0d25985f22f10651d1f93b3abba317 -->
<g id="edge4" class="edge">
<title>place_1f087a5954f6249bb7245576c304a0520d4178c5&#45;&gt;place_9ead47a82a0d25985f22f10651d1f93b3abba317</title>
<path fill="none" stroke="#333333" d="M393.76,-148.69C416.83,-125.1 451.22,-89.95 475.44,-65.19"/>
<polygon fill="#333333" stroke="#333333" points="476.69,-66.42 478.94,-61.62 474.19,-63.97 476.69,-66.42"/>
<text text-anchor="middle" x="436.5" y="-119.8" font-family="Arial" font-size="9.00">re_edit</text>
</g>
</g>
</svg>
